<svg xmlns="http://www.w3.org/2000/svg" viewBox="0 0 174.52 56.75"><defs><style>.cls-1{fill:#23397b;}</style></defs><title>Fichier 2</title><g id="Calque_2" data-name="Calque 2"><g id="Calque_1-2" data-name="Calque 1"><path class="cls-1" d="M406.63,340.25a17.85,17.85,0,0,0-7.22-7.69,21.46,21.46,0,0,0-10.84-2.68q-9.92,0-15.38,5.81c-.35.38-.67.77-1,1.17a17.45,17.45,0,0,0-5.05-4.3,21.5,21.5,0,0,0-10.85-2.68c-5.06,0-9.24,1.15-12.57,3.42a5.62,5.62,0,0,0-10.08,1.21l-6.94,20.56a37.9,37.9,0,0,0-1.73,8.77h-.23a43.58,43.58,0,0,0-1.72-8.77l-7-20.57a5.64,5.64,0,0,0-5.34-3.82h0a5.61,5.61,0,0,0-4.88,2.82c-3.3-2.4-7.55-3.62-12.8-3.62-5.76,0-10.38,1.64-13.87,4.88a23.22,23.22,0,0,0-6.06-10q-7.51-7.23-21.08-7.23h-17.4v56h15.69q14.71,0,22.5-7.36a22.1,22.1,0,0,0,2.24-2.5,17.71,17.71,0,0,0,3.53,4.92q5.84,5.71,16.17,5.71a44.86,44.86,0,0,0,8.81-.74,30.89,30.89,0,0,0,4.27-1.21,3.88,3.88,0,0,0,2.52-3.65v-.82a3.87,3.87,0,0,0-5-3.71c-.85.26-1.67.48-2.49.67a34.37,34.37,0,0,1-7.59.8c-3.31,0-5.89-.93-7.72-2.8a9.12,9.12,0,0,1-1.5-2,3.88,3.88,0,0,1,3.39-5.77h19.59a3.89,3.89,0,0,0,2.42-.87l6,15.74a5.65,5.65,0,0,0,5.27,3.62H327a5.62,5.62,0,0,0,5.26-3.62l4.07-10.69a23.36,23.36,0,0,0,1.68,4.61,18,18,0,0,0,7.24,7.77,21.42,21.42,0,0,0,10.86,2.7q9.81,0,15.31-5.9c.36-.38.68-.79,1-1.19a17.8,17.8,0,0,0,5.1,4.39,21.46,21.46,0,0,0,10.87,2.7q9.81,0,15.31-5.9t5.5-16.37a25.81,25.81,0,0,0-2.52-11.74m-144.41,4.33a3.62,3.62,0,0,1-1.72,3.21L244,356.69c-1.92,1-4.07-.67-4.07-3.22v-.12a3.59,3.59,0,0,1,1.8-3.26l5.64-2.78c2.35-1.16,2.42-5.18.11-6.46l-5.86-3.25a3.62,3.62,0,0,1-1.69-3.2c0-2.61,2.26-4.31,4.19-3.14l16.48,10a3.67,3.67,0,0,1,1.6,3.15Zm14.67,11.9a1.55,1.55,0,0,1-1.56,1.55h-9.92a1.56,1.56,0,1,1,0-3.11h9.92a1.56,1.56,0,0,1,1.56,1.56m19.19-9.26h-5.84a3.86,3.86,0,0,1-3-6.34l.07-.08a7.54,7.54,0,0,1,5.81-2.27A7.77,7.77,0,0,1,299,340.8l.05,0c2.26,2.4.33,6.38-3,6.38M363,361.61c-1.37,2.15-3.61,3.23-6.74,3.23s-5.41-1.08-6.81-3.25-2.09-5.37-2.09-9.6.69-7.44,2.07-9.54,3.64-3.15,6.76-3.15,5.41,1.05,6.79,3.17S365,347.76,365,352s-.68,7.46-2.05,9.62m32.26,0c-1.36,2.15-3.61,3.23-6.73,3.23s-5.42-1.08-6.81-3.25-2.09-5.37-2.09-9.6.69-7.44,2.07-9.54,3.63-3.15,6.75-3.15,5.41,1.05,6.8,3.17,2.07,5.29,2.07,9.52-.69,7.46-2.06,9.62" transform="translate(-234.63 -317.51)"/></g></g></svg>